<?xml version="1.0" encoding="utf-8"?>
<!-- Generator: Adobe Illustrator 16.0.0, SVG Export Plug-In . SVG Version: 6.00 Build 0)  -->
<!DOCTYPE svg PUBLIC "-//W3C//DTD SVG 1.1//EN" "http://www.w3.org/Graphics/SVG/1.1/DTD/svg11.dtd">
<svg version="1.1" id="Layer_1" xmlns="http://www.w3.org/2000/svg" xmlns:xlink="http://www.w3.org/1999/xlink" x="0px" y="0px"
	 width="2304px" height="428px" viewBox="0 0 2304 428" enable-background="new 0 0 2304 428" xml:space="preserve">
<g id="Guide" display="none">
</g>
<g id="IQON">
	
		<image display="none" overflow="visible" enable-background="new    " width="1441" height="325" xlink:href="BF4D42B8.jpeg"  transform="matrix(1.5638 0 0 1.5654 82.6672 -548)">
	</image>
	
		<text transform="matrix(1 0 0 1 28.9988 487.8496)" display="none" fill="#1E2840" enable-background="new    " font-family="'ProximaNova-Semibold'" font-size="123" letter-spacing="2">International Quality ON-Line Teaching</text>
	<g>
		<g enable-background="new    ">
			<path fill="#1E2840" d="M947.553,139.466c0-11.842,2.245-22.933,6.733-33.269c4.489-10.336,11.368-19.777,20.635-28.324
				c9.266-8.547,21.871-15.308,37.817-20.282c15.943-4.971,34.449-7.458,55.515-7.458c14.965,0,31.043,1.353,48.234,4.053
				c17.191,2.702,31.248,4.053,42.171,4.053c15.521,0,29.2-2.471,41.043-7.415c-0.69,27.707-15.408,41.56-44.146,41.56
				c-13.567,0-31.847-1.479-54.839-4.44l-48.832,226.725h-50.872l50.223-234.873h-4.152c-7.957,0-15.105,0.62-21.448,1.859
				s-12.395,3.494-18.161,6.763c-5.766,3.271-10.581,7.47-14.442,12.597c-3.864,5.131-6.919,11.808-9.167,20.036
				c-2.25,8.229-3.374,17.809-3.374,28.742c0,5.368,0.372,9.803,1.121,13.303c0.746,3.5,1.552,6.095,2.414,7.787
				s1.293,2.772,1.293,3.239c-12.648,0-22.103-2.654-28.368-7.963C950.684,160.85,947.553,151.952,947.553,139.466z"/>
			<path fill="#1E2840" d="M1118.458,260.691c0-6.093,0.491-12.675,1.466-19.745c0.978-7.071,2.587-14.715,4.829-22.936
				c2.242-8.219,5.028-16.181,8.364-23.885c3.333-7.7,7.588-15.175,12.761-22.418c5.173-7.242,10.951-13.563,17.331-18.969
				c6.381-5.402,13.909-9.714,22.591-12.934c8.679-3.218,18.021-4.829,28.022-4.829c25.98,0,38.974,11.269,38.974,33.8
				c0,13.222-3.824,25.437-11.469,36.646c-7.646,11.209-17.648,20.119-30.006,26.729c-12.359,6.612-25.607,10.319-39.748,11.122
				c-0.577,8.278-0.863,12.993-0.863,14.141c0,11.498,2.011,19.314,6.036,23.453c4.022,4.139,10.52,6.208,19.487,6.208
				c8.852,0,17.158-1.694,24.918-5.087c7.76-3.39,14.254-7.386,19.486-11.985c5.23-4.597,11.236-10.805,18.021-18.624h12.072
				c-27.135,43.572-59.496,65.357-97.09,65.357c-17.359,0-30.897-4.54-40.611-13.623
				C1123.314,294.032,1118.458,279.892,1118.458,260.691z M1174.331,226.374c13.681-0.919,25.636-7.213,35.869-18.883
				c10.231-11.667,15.348-24.803,15.348-39.404c0-9.657-2.932-14.485-8.795-14.485c-5.75,0-11.526,3.681-17.331,11.036
				c-5.807,7.358-10.837,16.469-15.089,27.333C1180.078,202.835,1176.745,214.303,1174.331,226.374z"/>
			<path fill="#1E2840" d="M1264.358,281.988c-1.725-6.494-2.586-13.823-2.586-21.987c0-8.161,0.832-16.754,2.494-25.78
				c1.668-9.024,4.104-18.164,7.318-27.42c3.213-9.252,7.432-18.077,12.654-26.47c5.221-8.391,11.045-15.865,17.473-22.419
				c6.43-6.553,14.033-11.782,22.814-15.692c8.779-3.907,18.105-5.863,27.975-5.863c9.641,0,16.816,1.646,21.521,4.937
				c4.703,3.29,7.059,7.646,7.059,13.073v2.598l3.99-18.883h50.844l-25.277,120.031c-1.035,4.597-1.553,8.388-1.553,11.373
				c0,10.118,4.828,15.176,14.486,15.176c6.438,0,12.07-3.104,16.898-9.313c4.83-6.208,8.736-14.197,11.727-23.97h14.832
				c-15.293,43.572-38.92,65.357-70.883,65.357c-10.006,0-18.031-2.786-24.066-8.363c-6.039-5.575-9.576-13.594-10.611-24.057
				c-14.49,21.615-32.031,32.42-52.617,32.42c-4.945,0-9.658-0.604-14.141-1.811c-4.484-1.207-8.738-3.218-12.762-6.036
				c-4.025-2.815-7.531-6.38-10.52-10.691C1268.438,293.887,1266.082,288.484,1264.358,281.988z M1314.024,255
				c0,6.44,0.572,11.7,1.725,15.779c1.15,4.082,2.791,6.871,4.92,8.363c2.129,1.496,3.941,2.444,5.438,2.846
				c1.494,0.404,3.395,0.604,5.697,0.604c5.639,0,11.449-2.815,17.434-8.447s9.957-13.217,11.912-22.755l16.801-79.587
				c0-3.01-1.15-6.02-3.445-9.029c-2.299-3.01-5.975-4.516-11.029-4.516c-7.125,0-13.9,3.448-20.332,10.347
				c-6.436,6.897-11.689,15.434-15.766,25.608c-4.08,10.174-7.324,20.693-9.736,31.558
				C1315.227,236.635,1314.024,246.378,1314.024,255z"/>
			<path fill="#1E2840" d="M1455.268,260.691c0-6.208,0.49-12.848,1.465-19.918c0.979-7.07,2.617-14.715,4.916-22.936
				c2.297-8.218,5.113-16.181,8.449-23.884c3.334-7.701,7.588-15.176,12.762-22.418c5.174-7.243,10.891-13.537,17.158-18.883
				c6.264-5.347,13.736-9.628,22.418-12.848c8.68-3.218,17.961-4.829,27.85-4.829c14.371,0,24.516,3.048,30.438,9.14
				c5.92,6.096,8.881,13.855,8.881,23.281c0,8.277-1.783,14.631-5.346,19.055c-3.564,4.428-8.049,6.64-13.451,6.64
				c-4.025,0-8.164-1.38-12.416-4.139c2.873-8.046,4.311-15.003,4.311-20.866c0-9.657-3.275-14.485-9.828-14.485
				c-7.014,0-14.141,5.949-21.385,17.848c-7.242,11.899-13.049,25.927-17.416,42.077c-4.371,16.153-6.553,30.782-6.553,43.888
				c0,11.498,2.01,19.314,6.035,23.453c4.023,4.139,10.52,6.208,19.486,6.208c8.852,0,17.158-1.694,24.918-5.087
				c7.76-3.39,14.254-7.386,19.486-11.985c5.23-4.597,11.236-10.805,18.021-18.624h12.072
				c-27.135,43.572-59.496,65.357-97.088,65.357c-17.361,0-30.898-4.54-40.611-13.623
				C1460.123,294.032,1455.268,279.892,1455.268,260.691z"/>
			<path fill="#1E2840" d="M1589.785,314.667l51.211-240.219l52.203-7.081l-18.885,88.896c11.502-13.042,25.25-19.563,41.24-19.563
				c11.938,0,21.465,3.25,28.584,9.743c7.119,6.497,10.678,16.528,10.678,30.093c0,10.233-2.818,26.529-8.449,48.889
				c-5.635,22.361-8.449,36.473-8.449,42.336c0,9.889,4.664,14.83,13.996,14.83c7.012,0,12.561-2.471,16.643-7.415
				c4.078-4.941,8.42-12.874,13.02-23.798h14.83c-3.793,11.152-8.02,20.81-12.674,28.971c-4.656,8.165-9.17,14.516-13.537,19.056
				c-4.371,4.543-9.051,8.164-14.047,10.864c-4.996,2.702-9.383,4.454-13.158,5.26c-3.773,0.803-7.834,1.207-12.182,1.207
				c-14.303,0-24.826-3.82-31.574-11.468c-6.746-7.645-10.119-17.1-10.119-28.367c0-8.162,2.643-23.337,7.932-45.526
				c5.287-22.187,7.934-37.017,7.934-44.491c0-12.071-4.371-18.107-13.107-18.107c-6.08,0-11.73,3.638-16.953,10.913
				s-8.52,14.033-9.895,20.268l-24.369,114.71H1589.785z"/>
			<path fill="#1E2840" d="M1786.557,274.486c0-6.437,0.922-14.141,2.76-23.107l23.969-113.298h50.873l-25.35,120.023
				c-0.922,4.139-1.381,7.933-1.381,11.381c0,4.829,1.121,8.222,3.363,10.175c2.242,1.956,5.891,2.932,10.951,2.932
				c6.781,0,13.105-2.959,18.969-8.881c5.863-5.92,10.174-13.365,12.934-22.332h14.83c-3.793,10.924-8.336,20.521-13.623,28.799
				c-5.289,8.277-10.492,14.658-15.605,19.142c-5.117,4.483-10.605,8.104-16.469,10.864c-5.863,2.759-10.951,4.54-15.262,5.346
				c-4.313,0.803-8.709,1.207-13.193,1.207c-11.268,0-20.379-3.506-27.332-10.52
				C1790.033,299.206,1786.557,288.628,1786.557,274.486z M1820.356,91.176c0-7.817,2.73-14.486,8.191-20.004
				c5.459-5.519,12.043-8.277,19.746-8.277c6.721,0,12.453,2.759,17.199,8.277c4.742,5.518,7.115,12.187,7.115,20.004
				c0,7.703-2.098,14.256-6.293,19.658c-4.199,5.405-10.205,8.105-18.021,8.105c-7.82,0-14.43-2.7-19.832-8.105
				C1823.057,105.432,1820.356,98.879,1820.356,91.176z"/>
			<path fill="#1E2840" d="M1877.791,314.667l37.428-176.586h50.865l-3.699,18.298c11.484-13.116,25.211-19.678,41.178-19.678
				c11.936,0,21.465,3.25,28.584,9.743c7.117,6.497,10.678,16.528,10.678,30.093c0,10.233-2.818,26.529-8.451,48.889
				c-5.633,22.361-8.449,36.473-8.449,42.336c0,9.889,4.664,14.83,13.998,14.83c7.012,0,12.559-2.471,16.641-7.415
				c4.08-4.941,8.42-12.874,13.02-23.798h14.832c-3.795,11.152-8.02,20.81-12.676,28.971c-4.656,8.165-9.17,14.516-13.537,19.056
				c-4.371,4.543-9.051,8.164-14.047,10.864c-4.994,2.702-9.381,4.454-13.156,5.26c-3.775,0.803-7.836,1.207-12.182,1.207
				c-14.303,0-24.828-3.82-31.574-11.468c-6.748-7.645-10.121-17.1-10.121-28.367c0-8.162,2.645-23.337,7.934-45.526
				c5.285-22.187,7.932-37.017,7.932-44.491c0-12.071-4.254-18.107-12.762-18.107c-5.943,0-11.287,3.051-16.029,9.146
				s-8.541,13.917-11.396,23.464l-24.135,113.281H1877.791z"/>
			<path fill="#1E2840" d="M2075.254,281.988c-1.725-6.494-2.588-13.823-2.588-21.987c0-8.161,0.834-16.754,2.498-25.78
				c1.666-9.024,4.104-18.164,7.322-27.42c3.217-9.252,7.436-18.077,12.664-26.47c5.225-8.391,11.053-15.865,17.486-22.419
				c6.432-6.553,14.041-11.782,22.828-15.692c8.783-3.907,18.117-5.863,27.996-5.863c9.645,0,16.824,1.646,21.533,4.939
				c4.711,3.292,7.064,7.654,7.064,13.084v2.08l3.908-18.379h50.898l-34.848,163.847c11.266-4.025,20.318-9.746,27.16-17.164
				c6.838-7.418,12.615-18.546,17.332-33.385h14.83c-2.646,8.967-5.893,17.016-9.744,24.143c-3.854,7.13-7.789,12.963-11.813,17.503
				c-4.025,4.543-8.535,8.51-13.537,11.899c-5,3.393-9.57,5.979-13.709,7.76c-4.139,1.784-8.744,3.363-13.814,4.742l-5.424,25.504
				c-8.273,40.019-29.465,60.03-63.582,60.03c-11.373,0-20.793-2.961-28.26-8.881c-7.467-5.923-11.199-14.399-11.199-25.437
				c0-23.339,19.287-40.869,57.865-52.596l4.311-18.625c-12.137,12.877-26.365,19.314-42.689,19.314
				c-4.943,0-9.656-0.604-14.141-1.811c-4.482-1.207-8.738-3.218-12.76-6.036c-4.025-2.815-7.531-6.38-10.52-10.691
				C2079.332,293.887,2076.979,288.484,2075.254,281.988z M2119.744,363.084c0,2.687,1.092,5.233,3.277,7.642
				c2.186,2.403,5.061,3.608,8.627,3.608c3.91,0,7.764-2.641,11.561-7.919c3.793-5.284,6.783-12.759,8.973-22.43l2.152-10.114
				C2131.276,342.264,2119.744,352.002,2119.744,363.084z M2124.918,255c0,6.44,0.576,11.7,1.73,15.779
				c1.152,4.082,2.797,6.871,4.93,8.363c2.135,1.496,3.951,2.444,5.451,2.846c1.498,0.404,3.404,0.604,5.711,0.604
				c5.189,0,10.641-2.503,16.35-7.515s9.719-11.722,12.025-20.131l17.752-83.476c-0.232-3.012-1.467-5.968-3.709-8.867
				c-2.24-2.896-5.83-4.346-10.771-4.346c-7.125,0-13.904,3.448-20.338,10.347c-6.436,6.897-11.691,15.434-15.771,25.608
				c-4.08,10.174-7.326,20.693-9.74,31.558S2124.918,246.378,2124.918,255z"/>
		</g>
	</g>
	<g id="left_eye">
		
			<rect x="340.248" y="248.5" transform="matrix(0.7071 -0.7071 0.7071 0.7071 -94.0511 336.9396)" fill="#E61800" width="38.898" height="66.999"/>
		<path fill="#E61800" d="M349.612,162c0,5.745,0,6.255,0,12C355.049,170.688,354.424,163.5,349.612,162z"/>
		<path fill="#E61800" d="M92.692,162c0.479,45.618,15.014,80.309,37,104c4.418,3.582,8.418,7.582,12,12
			c21.829,19.773,54.647,36.809,95,38c40.771,1.203,75.479-15.439,99-34c8.039-9.628,18.299-17.034,25-28l1-1
			c13.621-19.379,23.65-42.349,26-73c0-7.667,0-15.333,0-23c-3.059-39.608-18.721-66.612-39-89c-3.752-2.915-7.086-6.248-10-10
			c-23.285-22.418-58.438-37-105-37c-45.188,0-96.24-0.823-141,1C93.042,67.686,92.225,117.425,92.692,162z M131.692,59
			c40,0.667,82.667-1.333,121,1c57.232,9.101,90.652,42.013,97,102c5.125,5.33,4.771,7.039,0,12c-0.32,28.681-10.893,47.107-24,63
			c-3.5,3.834-6.049,8.619-11,11c-15.207,14.459-32.668,26.666-60,29c-7.014,1.665-20.987,1.665-28,0
			c-54.85-9.816-87.477-41.857-95-99C130.025,140.666,130.025,96.334,131.692,59z"/>
		<path fill="#0B155A" d="M288.52,169.961c-3.535,0-6.916,0.647-10.039,1.822c2.013,2.79,3.209,6.205,3.209,9.907
			c0,9.377-7.602,16.978-16.977,16.978c-1.635,0-3.209-0.244-4.705-0.675c-0.002,0.164-0.012,0.326-0.012,0.491
			c0,15.754,12.77,28.524,28.522,28.524s28.523-12.771,28.523-28.524C317.043,182.731,304.273,169.961,288.52,169.961z"/>
	</g>
	<g id="right_eye">
		<path fill="#E61800" d="M417,162c0,4,0,8,0,12C411.563,170.688,412.188,163.5,417,162z"/>
		<path fill="#E61800" d="M674,22c-44.761-1.823-95.812-1-141-1c-46.563,0-81.716,14.582-105,37c-2.914,3.752-6.248,7.085-10,10
			c-20.279,22.388-35.941,49.392-39,89c0,7.667,0,15.333,0,23c2.35,30.651,12.379,53.621,26,73l1,1
			c6.699,10.966,16.961,18.372,25,28c23.521,18.561,58.229,35.203,99,34c40.354-1.191,73.171-18.227,95-38
			c3.581-4.418,7.581-8.418,12-12c21.986-23.691,36.521-58.382,37-104C674.467,117.425,673.65,67.686,674,22z M635,178
			c-7.523,57.143-40.15,89.184-95,99c-7.014,1.665-20.987,1.665-28,0c-27.332-2.334-44.794-14.541-60-29
			c-4.952-2.381-7.5-7.166-11-11c-13.107-15.893-23.682-34.319-24-63c-1.658-1.725-1.658-10.275,0-12
			c6.348-59.987,39.768-92.899,97-102c38.334-2.333,81-0.333,121-1C636.666,96.334,636.666,140.666,635,178z"/>
		<path fill="#0B155A" d="M478.309,169.961c-3.534,0-6.916,0.647-10.039,1.822c2.012,2.79,3.21,6.205,3.21,9.907
			c0,9.377-7.602,16.978-16.978,16.978c-1.635,0-3.209-0.244-4.704-0.675c-0.003,0.164-0.014,0.326-0.014,0.491
			c0,15.754,12.771,28.524,28.523,28.524c15.754,0,28.523-12.771,28.523-28.524C506.832,182.731,494.063,169.961,478.309,169.961z"
			/>
	</g>
	<rect x="32" y="21.333" fill="#E61800" width="38.333" height="293.334"/>
	<polygon fill="#E61800" points="884.956,21.333 884.956,250.241 735.799,21.427 735.799,21.333 697.467,21.333 697.467,314.667 
		735.799,314.667 735.799,85.852 884.956,314.667 923.288,314.667 923.288,21.333 	"/>
</g>
<g id="Layer_1_1_" display="none">
	<g display="inline">
		<path fill="#A4AC9C" d="M483,226c-1.078,1.655-8.923,1.655-10,0C476.332,226,479.666,226,483,226z"/>
		<path fill="#FFFFFF" d="M364,296c4.926,3.407,8.073,8.593,13,12c3.741,5.258,9.258,8.742,13,14c-8.668,0-17.334,0-26,0
			C364,313.333,364,304.667,364,296z"/>
		<path fill="#A4AC9C" d="M377,308c4.751,3.915,9.084,8.249,13,13c5.903-2.098,7.924-8.076,13-11c-3.072,4.596-7.929,7.404-11,12
			c-0.668,0-1.334,0-2,0C386.258,316.742,380.741,313.258,377,308z"/>
		<path fill="#778665" d="M403,310c8.916-9.75,18.25-19.084,28-28C422.082,291.75,412.75,301.084,403,310z"/>
		<path fill="#FFFFFF" d="M403,310c9.75-8.916,19.082-18.25,28-28c23.521,18.561,58.229,35.203,99,34
			c40.354-1.191,73.171-18.227,95-38c4.418-3.582,8.418-7.582,12-12c21.986-23.691,36.521-58.382,37-104
			c0.467-44.575-0.351-94.314,0-140c-44.761-1.823-95.812-1-141-1c-46.563,0-81.716,14.582-105,37c-3.753,2.915-7.086,6.248-10,10
			c-20.279,22.388-35.941,49.392-39,89c-1.664,5.352-1.664,17.648,0,23c2.349,30.651,12.379,53.621,26,73
			c-7.918,8.75-16.25,17.084-25,25c-5.924,4.41-10.077,10.59-16,15c0-91,0-182,0-273c103.666,0,207.334,0,311,0
			c0,100.667,0,201.333,0,302c-94.332,0-188.669,0-283,0C395.072,317.404,399.928,314.596,403,310z"/>
		<path fill="#A4AC9C" d="M625,278c3.581-4.418,7.581-8.418,12-12C633.418,270.418,629.418,274.418,625,278z"/>
		<path fill="#D2D8CC" d="M364,293c5.923-4.41,10.076-10.59,16-15c-4.916,5.751-10.249,11.084-16,16
			C364,293.667,364,293.333,364,293z"/>
		<path fill="#778665" d="M441,237c4.085,3.248,7.752,6.915,11,11C447.048,245.619,444.5,240.834,441,237z"/>
		<path fill="#D2D8CC" d="M365,295c3.406,4.926,8.593,8.074,12,13c-4.927-3.407-8.074-8.593-13-12c0-0.333,0-0.667,0-1
			C364.332,295,364.666,295,365,295z"/>
		<path fill="#A4AC9C" d="M635,59c1.666,37.334,1.666,81.666,0,119c0-39.333,0-78.667,0-118C635,59.667,635,59.333,635,59z"/>
		<path fill="#FFFFFF" d="M483,226c35.245-3.813,26.813-67.53-15-54c7.216,12.816-0.736,28.564-18,26c1.25,15.75,9.331,24.668,23,28
			C474.077,227.655,481.922,227.655,483,226z"/>
		<path fill="#D2D8CC" d="M514,60c38.334-2.333,81-0.333,121-1c0,0.333,0,0.667,0,1C594.666,60,554.332,60,514,60z"/>
		<path fill="#D2D8CC" d="M512,277c9.332,0,18.666,0,28,0C532.987,278.665,519.013,278.665,512,277z"/>
	</g>
</g>
</svg>
